<svg xmlns="http://www.w3.org/2000/svg" viewBox="0 0 30 30" fill="currentColor">
    <path style="line-height:normal;text-indent:0;text-align:start;text-decoration-line:none;text-decoration-style:solid;text-decoration-color:#000;text-transform:none;block-progression:tb;isolation:auto;mix-blend-mode:normal" d="M 15 0 C 13.35499 0 12 1.3549904 12 3 L 10 3 L 8 3 C 6.3550302 3 5 4.3550302 5 6 L 5 24 C 5 25.64497 6.3550302 27 8 27 L 22 27 C 23.64497 27 25 25.64497 25 24 L 25 6 C 25 4.3550302 23.64497 3 22 3 L 20 3 L 18 3 C 18 1.3549904 16.64501 0 15 0 z M 15 2 C 15.564129 2 16 2.4358706 16 3 C 16 3.5641294 15.564129 4 15 4 C 14.435871 4 14 3.5641294 14 3 C 14 2.4358706 14.435871 2 15 2 z M 8 5 L 10 5 C 10 6.105 10.895 7 12 7 L 18 7 C 19.105 7 20 6.105 20 5 L 22 5 C 22.56503 5 23 5.4349698 23 6 L 23 24 C 23 24.56503 22.56503 25 22 25 L 8 25 C 7.4349698 25 7 24.56503 7 24 L 7 6 C 7 5.4349698 7.4349698 5 8 5 z M 15 10 C 11.686 10 9 12.686 9 16 C 9 19.314 11.686 22 15 22 C 18.314 22 21 19.314 21 16 C 21 12.686 18.314 10 15 10 z M 17 14 C 17.25575 14 17.511531 14.097469 17.707031 14.292969 C 18.098031 14.683969 18.098031 15.316031 17.707031 15.707031 L 14.707031 18.707031 C 14.512031 18.902031 14.256 19 14 19 C 13.744 19 13.487969 18.902031 13.292969 18.707031 L 11.994141 17.408203 C 11.603141 17.017203 11.603141 16.385141 11.994141 15.994141 C 12.385141 15.603141 13.017203 15.603141 13.408203 15.994141 L 14 16.585938 L 16.292969 14.292969 C 16.488469 14.097469 16.74425 14 17 14 z" font-weight="400" font-family="sans-serif" white-space="normal" overflow="visible"/>
</svg>
