<svg xmlns="http://www.w3.org/2000/svg" xmlns:xlink="http://www.w3.org/1999/xlink" viewBox="0 0 16 16" version="1.1" fill="currentColor">
<g id="surface1">
<path style=" " d="M 2.5 2 C 1.675781 2 1 2.675781 1 3.5 L 1 11.5 C 1 12.324219 1.675781 13 2.5 13 L 4 13 L 4 15.433594 L 7.652344 13 L 12.5 13 C 13.324219 13 14 12.324219 14 11.5 L 14 3.5 C 14 2.675781 13.324219 2 12.5 2 Z M 2.5 3 L 12.5 3 C 12.78125 3 13 3.21875 13 3.5 L 13 11.5 C 13 11.78125 12.78125 12 12.5 12 L 7.347656 12 L 5 13.566406 L 5 12 L 2.5 12 C 2.21875 12 2 11.78125 2 11.5 L 2 3.5 C 2 3.21875 2.21875 3 2.5 3 Z M 7.5 5 C 6.675781 5 6 5.675781 6 6.5 L 7 6.5 C 7 6.21875 7.21875 6 7.5 6 C 7.78125 6 8 6.21875 8 6.5 C 8 6.703125 7.882813 6.871094 7.714844 6.953125 C 7.339844 7.128906 7 7.515625 7 8.011719 L 7 9 L 8 9 L 8 8.011719 C 8 7.960938 8.027344 7.914063 8.148438 7.855469 L 8.148438 7.851563 C 8.652344 7.613281 9 7.09375 9 6.5 C 9 5.675781 8.324219 5 7.5 5 Z M 7 10 L 7 11 L 8 11 L 8 10 Z "/>
</g>
</svg>
