<svg xmlns="http://www.w3.org/2000/svg" viewBox="0 0 16 16" version="1.1" fill="currentColor">
<g id="surface1">
<path style=" " d="M 1 1 L 1 7 L 7 7 L 7 1 Z M 8 1 L 8 7 L 14 7 L 14 1 Z M 9 2 L 13 2 L 13 6 L 9 6 Z M 1 8 L 1 14 L 7 14 L 7 8 Z M 8 8 L 8 14 L 14 14 L 14 8 Z M 2 9 L 6 9 L 6 13 L 2 13 Z M 2 10.5 C 2 10.777344 2.222656 11 2.5 11 C 2.777344 11 3 10.777344 3 10.5 C 3 10.222656 2.777344 10 2.5 10 C 2.222656 10 2 10.222656 2 10.5 Z M 2 12.5 C 2 12.777344 2.222656 13 2.5 13 C 2.777344 13 3 12.777344 3 12.5 C 3 12.222656 2.777344 12 2.5 12 C 2.222656 12 2 12.222656 2 12.5 Z M 4.5 13 C 4.777344 13 5 12.777344 5 12.5 C 5 12.222656 4.777344 12 4.5 12 C 4.222656 12 4 12.222656 4 12.5 C 4 12.777344 4.222656 13 4.5 13 Z M 6 11.5 C 6 11.222656 5.777344 11 5.5 11 C 5.222656 11 5 11.222656 5 11.5 C 5 11.777344 5.222656 12 5.5 12 C 5.777344 12 6 11.777344 6 11.5 Z M 6 9.5 C 6 9.222656 5.777344 9 5.5 9 C 5.222656 9 5 9.222656 5 9.5 C 5 9.777344 5.222656 10 5.5 10 C 5.777344 10 6 9.777344 6 9.5 Z M 3.5 9 C 3.222656 9 3 9.222656 3 9.5 C 3 9.777344 3.222656 10 3.5 10 C 3.777344 10 4 9.777344 4 9.5 C 4 9.222656 3.777344 9 3.5 9 Z M 10.203125 9 L 12.292969 9 L 9 12.292969 L 9 10.203125 Z M 13 9.707031 L 13 11.8125 L 11.8125 13 L 9.707031 13 Z M 4.5 10 C 4.222656 10 4 10.222656 4 10.5 C 4 10.777344 4.222656 11 4.5 11 C 4.777344 11 5 10.777344 5 10.5 C 5 10.222656 4.777344 10 4.5 10 Z M 3.5 11 C 3.222656 11 3 11.222656 3 11.5 C 3 11.777344 3.222656 12 3.5 12 C 3.777344 12 4 11.777344 4 11.5 C 4 11.222656 3.777344 11 3.5 11 Z "/>
</g>
</svg>
