<svg xmlns="http://www.w3.org/2000/svg" xmlns:xlink="http://www.w3.org/1999/xlink" viewBox="0 0 16 16" fill="currentColor">
    <path style=" " d="M 2.5 2 C 1.675781 2 1 2.675781 1 3.5 L 1 11.5 C 1 12.324219 1.675781 13 2.5 13 L 13.5 13 C 14.324219 13 15 12.324219 15 11.5 L 15 3.5 C 15 2.675781 14.324219 2 13.5 2 Z M 2.5 3 L 11 3 L 11 12 L 2.5 12 C 2.21875 12 2 11.78125 2 11.5 L 2 3.5 C 2 3.21875 2.21875 3 2.5 3 Z M 12 3 L 13.5 3 C 13.78125 3 14 3.21875 14 3.5 L 14 11.5 C 14 11.78125 13.78125 12 13.5 12 L 12 12 Z M 7 5 L 7 7 L 4 7 L 4 8 L 7 8 L 7 10 L 9.5 7.5 Z "/>
</svg>
