<svg xmlns="http://www.w3.org/2000/svg" viewBox="0 0 16 16" version="1.1" fill="currentColor">
<g id="surface1">
<path style=" " d="M 7.492188 0.992188 C 7.457031 0.992188 7.421875 0.996094 7.386719 1.007813 C 3.890625 1.066406 1.0625 3.898438 1.007813 7.394531 C 0.988281 7.464844 0.988281 7.542969 1.007813 7.613281 C 1.066406 11.109375 3.898438 13.9375 7.394531 13.996094 C 7.464844 14.011719 7.542969 14.011719 7.613281 13.996094 C 11.109375 13.933594 13.9375 11.101563 13.996094 7.605469 C 14.011719 7.535156 14.011719 7.457031 13.996094 7.386719 C 13.933594 3.894531 11.109375 1.066406 7.617188 1.007813 C 7.574219 0.996094 7.535156 0.992188 7.492188 0.992188 Z M 7 2.023438 L 7 3 C 6.996094 3.179688 7.09375 3.347656 7.246094 3.4375 C 7.402344 3.53125 7.597656 3.53125 7.753906 3.4375 C 7.90625 3.347656 8.003906 3.179688 8 3 L 8 2.023438 C 10.640625 2.261719 12.738281 4.359375 12.972656 7 L 12 7 C 11.820313 6.996094 11.652344 7.09375 11.5625 7.246094 C 11.46875 7.402344 11.46875 7.597656 11.5625 7.753906 C 11.652344 7.90625 11.820313 8.003906 12 8 L 12.972656 8 C 12.738281 10.640625 10.640625 12.738281 8 12.972656 L 8 12 C 8.003906 11.863281 7.949219 11.734375 7.855469 11.636719 C 7.757813 11.542969 7.628906 11.488281 7.492188 11.492188 C 7.214844 11.496094 6.996094 11.722656 7 12 L 7 12.972656 C 4.359375 12.738281 2.261719 10.640625 2.023438 8 L 3 8 C 3.179688 8.003906 3.347656 7.90625 3.4375 7.753906 C 3.53125 7.597656 3.53125 7.402344 3.4375 7.246094 C 3.347656 7.09375 3.179688 6.996094 3 7 L 2.023438 7 C 2.261719 4.359375 4.359375 2.261719 7 2.023438 Z M 10 5 L 6.5 6.5 L 5 10 L 8.5 8.5 Z "/>
</g>
</svg>
