<svg xmlns="http://www.w3.org/2000/svg" viewBox="0 0 16 16" version="1.1" fill="currentColor">
<g id="surface1">
<path style=" " d="M 3.5 1 C 2.675781 1 2 1.675781 2 2.5 L 2 12.5 C 2 13.324219 2.675781 14 3.5 14 L 12.5 14 C 13.324219 14 14 13.324219 14 12.5 L 14 2.5 C 14 1.675781 13.324219 1 12.5 1 Z M 3.5 2 L 12.5 2 C 12.78125 2 13 2.21875 13 2.5 L 13 5 L 6 5 L 6 6 L 13 6 L 13 9 L 6 9 L 6 10 L 13 10 L 13 12.5 C 13 12.78125 12.78125 13 12.5 13 L 3.5 13 C 3.21875 13 3 12.78125 3 12.5 L 3 10 L 5 10 L 5 9 L 3 9 L 3 6 L 5 6 L 5 5 L 3 5 L 3 2.5 C 3 2.21875 3.21875 2 3.5 2 Z "/>
</g>
</svg>
