<svg xmlns="http://www.w3.org/2000/svg" viewBox="0 0 16 16" version="1.1" fill="currentColor">
<g id="surface1">
<path style=" " d="M 4.5 2 C 3.675781 2 3 2.675781 3 3.5 L 3 13 L 3.210938 13 C 3.429688 13.554688 3.871094 14 4.5 14 L 13 14 L 13 13 L 4.5 13 C 4.21875 13 4 12.78125 4 12.5 C 4 12.21875 4.21875 12 4.5 12 L 13 12 L 13 2 Z M 4.5 3 L 12 3 L 12 11 L 4.5 11 C 4.324219 11 4.15625 11.039063 4 11.09375 L 4 3.5 C 4 3.21875 4.21875 3 4.5 3 Z M 7.875 4 C 7.667969 4 7.484375 4.125 7.410156 4.316406 L 6.035156 7.816406 C 6.011719 7.875 6 7.9375 6 8 L 6 10 L 7 10 L 7 8.992188 L 9 8.992188 L 9 10 L 10 10 L 10 8 C 10 7.9375 9.988281 7.875 9.964844 7.816406 L 8.589844 4.316406 C 8.515625 4.125 8.332031 4 8.125 4 Z M 8 5.546875 L 8.960938 7.992188 L 7.039063 7.992188 Z "/>
</g>
</svg>
