<svg xmlns="http://www.w3.org/2000/svg" viewBox="0 0 16 16" fill="currentColor">
    <path style="line-height:normal;text-indent:0;text-align:start;text-decoration-line:none;text-decoration-style:solid;text-decoration-color:#000;text-transform:none;block-progression:tb;isolation:auto;mix-blend-mode:normal" d="M 2.5 4 C 1.6774686 4 1 4.6774686 1 5.5 L 1 9.5 C 1 10.322531 1.6774686 11 2.5 11 L 8 11 L 8.75 11 L 9.3300781 11 L 10.314453 10 L 8.75 10 L 8 10 L 2.5 10 C 2.2185314 10 2 9.7814686 2 9.5 L 2 5.5 C 2 5.2185314 2.2185314 5 2.5 5 L 12.5 5 C 12.781469 5 13 5.2185314 13 5.5 L 13 7 L 14 7 L 14 5.5 C 14 4.6774686 13.322531 4 12.5 4 L 2.5 4 z M 14.203125 8.0039062 C 13.876597 8.0059963 13.55183 8.1310493 13.308594 8.3808594 L 8.6445312 13.123047 L 7.9492188 16.048828 L 10.875 15.353516 L 10.972656 15.255859 L 15.617188 10.689453 C 16.116808 10.202981 16.121787 9.3874144 15.628906 8.8945312 L 15.103516 8.3691406 C 14.857074 8.1226991 14.529653 8.0018122 14.203125 8.0039062 z M 14.208984 8.9960938 C 14.275665 8.9957637 14.342926 9.0226118 14.396484 9.0761719 L 14.921875 9.6015625 C 15.028992 9.7086795 15.028349 9.8690817 14.919922 9.9746094 L 14.917969 9.9746094 L 10.371094 14.445312 L 9.296875 14.701172 L 9.5527344 13.626953 L 14.023438 9.0800781 L 14.023438 9.078125 C 14.076201 9.0239351 14.142303 8.9964238 14.208984 8.9960938 z" font-weight="400" font-family="sans-serif" white-space="normal" overflow="visible"/>
</svg>
