<svg xmlns="http://www.w3.org/2000/svg" viewBox="0 0 16 16" fill="currentColor">
    <path style="line-height:normal;text-indent:0;text-align:start;text-decoration-line:none;text-decoration-style:solid;text-decoration-color:#000;text-transform:none;block-progression:tb;isolation:auto;mix-blend-mode:normal" d="M 2.5 2 C 1.6774686 2 1 2.6774686 1 3.5 L 1 11.5 C 1 12.322531 1.6774686 13 2.5 13 L 7 13 L 7 12 L 2.5 12 C 2.2185314 12 2 11.781469 2 11.5 L 2 5 L 14 5 L 14 7 L 15 7 L 15 3.5 C 15 2.6774686 14.322531 2 13.5 2 L 2.5 2 z M 2.5 3 L 13.5 3 C 13.781469 3 14 3.2185314 14 3.5 L 14 4 L 2 4 L 2 3.5 C 2 3.2185314 2.2185314 3 2.5 3 z M 4 7 L 4 8 L 5 8 L 5 7 L 4 7 z M 6 7 L 6 8 L 12 8 L 12 7 L 6 7 z M 14.205078 7.9648438 C 13.87855 7.9669378 13.553783 8.0939399 13.310547 8.34375 L 8.6464844 13.085938 L 7.9511719 16.011719 L 10.876953 15.314453 L 10.974609 15.216797 L 15.619141 10.652344 C 16.118761 10.165871 16.12374 9.3503049 15.630859 8.8574219 L 15.105469 8.3320312 C 14.859027 8.0855898 14.531606 7.9627496 14.205078 7.9648438 z M 14.210938 8.9589844 C 14.277618 8.9586543 14.344879 8.9855025 14.398438 9.0390625 L 14.923828 9.5644531 C 15.030945 9.6715701 15.030302 9.8300192 14.921875 9.9355469 L 14.919922 9.9375 L 10.373047 14.408203 L 9.2988281 14.664062 L 9.5546875 13.587891 L 14.025391 9.0410156 C 14.078154 8.9868258 14.144255 8.9593144 14.210938 8.9589844 z M 4 9 L 4 10 L 5 10 L 5 9 L 4 9 z M 6 9 L 6 10 L 10 10 L 10 9 L 6 9 z"/>
</svg>
