<svg xmlns="http://www.w3.org/2000/svg" viewBox="0 0 16 16" version="1.1" fill="currentColor">
<g id="surface1">
<path style=" " d="M 4 2 C 3.859375 2 3.726563 2.058594 3.632813 2.164063 L 2.132813 3.808594 C 2.046875 3.902344 2 4.019531 2 4.148438 L 2 13.5 C 2 13.777344 2.222656 14 2.5 14 L 13.5 14 C 13.777344 14 14 13.777344 14 13.5 L 14 4.148438 C 14 4.019531 13.953125 3.902344 13.871094 3.808594 L 12.371094 2.164063 C 12.273438 2.058594 12.140625 2 12 2 Z M 4.21875 3 L 11.78125 3 L 12.6875 4 L 3.3125 4 Z M 3 5 L 13 5 L 13 13 L 3 13 Z M 6 6 L 6 7 L 10 7 L 10 6 Z "/>
</g>
</svg>
