<svg xmlns="http://www.w3.org/2000/svg" viewBox="0 0 16 16" fill="currentColor">
    <path d="M 8 1 L 6 2 L 6 5 L 8 6 L 10 5 L 10 2 L 8 1 z M 11 3.8105469 L 11 4.9140625 L 12 5.3847656 L 12 7.3925781 L 12.558594 7.1171875 L 13 6.8984375 L 13 5.3847656 C 13 4.9967656 12.776781 4.6454688 12.425781 4.4804688 L 11 3.8105469 z M 5 3.8574219 L 3.5917969 4.4863281 C 3.2317969 4.6463281 3 5.0034375 3 5.3984375 L 3 6.8984375 L 3.4414062 7.1171875 L 4 7.3925781 L 4 5.3984375 L 5 4.953125 L 5 3.8574219 z M 3 8.0136719 L 1 9 L 1 9.1289062 L 1 11.900391 L 1 12 L 3 13.013672 L 5 12 L 5 11.900391 L 5 9.1289062 L 5 9 L 3 8.0136719 z M 13 8.0136719 L 11 9 L 11 12 L 13 13.013672 L 15 12 L 15 9 L 13 8.0136719 z M 6 12.080078 L 6 12.613281 L 5.4511719 12.892578 L 5.3867188 12.925781 L 7.6601562 13.941406 C 7.8791563 14.020406 8.1208437 14.020406 8.3398438 13.941406 L 10.621094 12.929688 L 10.548828 12.892578 L 10 12.613281 L 10 12.080078 L 8 13 L 6 12.080078 z"/>
</svg>
