<svg xmlns="http://www.w3.org/2000/svg" viewBox="0 0 16 16" version="1.1" fill="currentColor">
<g id="surface1">
<path style=" " d="M 8 1 C 6.296875 1 4.839844 2.066406 4.265625 3.570313 C 4.246094 3.617188 4.226563 3.664063 4.210938 3.71875 L 5.160156 4.03125 C 5.171875 4 5.183594 3.96875 5.195313 3.933594 L 5.195313 3.929688 C 5.628906 2.804688 6.714844 2 8 2 C 9.664063 2 11 3.335938 11 5 L 11 6 L 3.5 6 C 2.675781 6 2 6.675781 2 7.5 L 2 12.5 C 2 13.324219 2.675781 14 3.5 14 L 12.5 14 C 13.324219 14 14 13.324219 14 12.5 L 14 7.5 C 14 6.675781 13.324219 6 12.5 6 L 12 6 L 12 5 C 12 2.796875 10.203125 1 8 1 Z M 3.5 7 L 12.5 7 C 12.78125 7 13 7.21875 13 7.5 L 13 12.5 C 13 12.78125 12.78125 13 12.5 13 L 3.5 13 C 3.21875 13 3 12.78125 3 12.5 L 3 7.5 C 3 7.21875 3.21875 7 3.5 7 Z "/>
</g>
</svg>
