<svg xmlns="http://www.w3.org/2000/svg" viewBox="0 0 16 16" fill="currentColor">
    <path style="line-height:normal;text-indent:0;text-align:start;text-decoration-line:none;text-decoration-style:solid;text-decoration-color:#000;text-transform:none;block-progression:tb;isolation:auto;mix-blend-mode:normal" d="M 4 2 L 4 11 L 2 11 L 2 12.5 C 2 12.912335 2.1453491 13.304342 2.421875 13.580078 C 2.6984009 13.855814 3.0900381 14 3.5 14 L 11.5 14 C 11.909962 14 12.301599 13.855814 12.578125 13.580078 C 12.854651 13.304342 13 12.912335 13 12.5 L 13 2 L 4 2 z M 5 3 L 12 3 L 12 12.5 C 12 12.690665 11.94482 12.79758 11.871094 12.871094 C 11.79737 12.944607 11.689038 13 11.5 13 C 11.191484 13 11 12.756331 11 12.375 L 11 11 L 5 11 L 5 3 z M 3 12 L 10 12 L 10 12.375 C 10 12.604933 10.144686 12.790671 10.232422 13 L 3.5 13 C 3.3109619 13 3.2026304 12.944607 3.1289062 12.871094 C 3.0551822 12.79758 3 12.690665 3 12.5 L 3 12 z" font-weight="400" font-family="sans-serif" white-space="normal" overflow="visible"/>
</svg>
