<svg xmlns="http://www.w3.org/2000/svg" viewBox="0 0 16 16" fill="currentColor">
    <path style="line-height:normal;text-indent:0;text-align:start;text-decoration-line:none;text-decoration-style:solid;text-decoration-color:#000;text-transform:none;block-progression:tb;isolation:auto;mix-blend-mode:normal" d="M 10.275391 1.0175781 L 4.0253906 7.1425781 A 0.50005 0.50005 0 0 0 3.8984375 7.3515625 L 2.0234375 13.351562 A 0.50005 0.50005 0 0 0 2.6601562 13.972656 L 8.5351562 11.972656 A 0.50005 0.50005 0 0 0 8.7246094 11.857422 L 8.9609375 11.625 L 9 11.625 C 9 11.612588 8.9981006 11.602178 8.9980469 11.589844 L 14.974609 5.7324219 L 14.275391 5.0175781 L 8.875 10.308594 C 8.6757657 9.3337027 8.2586598 8.7267442 7.7910156 8.390625 C 7.3158781 8.0491199 7.0395975 8.1090708 6.8027344 8.1074219 C 6.7321709 7.9919319 6.6651075 7.841461 6.375 7.609375 C 6.1500012 7.429376 5.8365208 7.2606804 5.453125 7.1445312 L 10.974609 1.7324219 L 10.275391 1.0175781 z M 4.7363281 8.0195312 C 5.2273838 8.0637006 5.5460321 8.2274507 5.75 8.390625 C 5.9863177 8.5796791 6.0527344 8.7226564 6.0527344 8.7226562 A 0.50005 0.50005 0 0 0 6.5625 8.9960938 C 6.5625 8.9960938 6.8595706 8.9519838 7.2089844 9.203125 C 7.5141354 9.4224523 7.8726626 9.9371275 7.9628906 11.111328 L 4.4980469 12.291016 L 3.6621094 11.455078 L 4.7363281 8.0195312 z" font-weight="400" font-family="sans-serif" white-space="normal" overflow="visible"/>
</svg>
