<svg xmlns="http://www.w3.org/2000/svg" viewBox="0 0 16 16" fill="currentColor">
    <path style="line-height:normal;text-indent:0;text-align:start;text-decoration-line:none;text-decoration-style:solid;text-decoration-color:#000;text-transform:none;block-progression:tb;isolation:auto;mix-blend-mode:normal" d="M 4.5 2 C 3.6774686 2 3 2.6774686 3 3.5 L 3 12.5 C 3 13.151 3.419 13.701203 4 13.908203 L 4 12.5 C 4 12.224 4.224 12 4.5 12 L 12 12 L 13 12 L 13 11 L 13 2 L 4.5 2 z M 4.5 3 L 12 3 L 12 11 L 4.5 11 C 4.3240911 11 4.1569789 11.035893 4 11.091797 L 4 3.5 C 4 3.2185314 4.2185314 3 4.5 3 z M 5 4 L 5 5 L 6 5 L 6 4 L 5 4 z M 5 6 L 5 7 L 6 7 L 6 6 L 5 6 z M 5 8 L 5 9 L 6 9 L 6 8 L 5 8 z M 5 13 L 5 15 L 6.5 14 L 8 15 L 8 13 L 5 13 z M 9 13 L 9 14 L 13 14 L 13 13 L 9 13 z" font-weight="400" font-family="sans-serif" white-space="normal" overflow="visible"/>
</svg>
