<svg xmlns="http://www.w3.org/2000/svg" xmlns:xlink="http://www.w3.org/1999/xlink" viewBox="0 0 16 16" version="1.1" fill="currentColor">

<g id="surface1">
        <path d="M6.570313 1L6.328125 2.289063C 5.398438 2.5625 4.570313 3.046875 3.890625 3.695313L3.890625 3.695313L2.652344 3.261719L1.222656 5.738281L2.210938 6.585938C 2.097656 7.042969 2 7.507813 2 8C 2 8.492188 2.097656 8.957031 2.210938 9.414063L2.210938 9.414063L1.222656 10.261719L2.652344 12.738281L3.886719 12.300781C 4.570313 12.957031 5.398438 13.4375 6.328125 13.714844L6.328125 13.714844L6.570313 15L8 15L8 16L16 16L16 8L14 8C 14 7.507813 13.902344 7.042969 13.789063 6.585938L13.789063 6.585938L14.777344 5.738281L13.347656 3.261719L12.113281 3.695313C 11.429688 3.042969 10.601563 2.5625 9.671875 2.289063L9.671875 2.289063L9.429688 1L6.570313 1zM7.398438 2L8.601563 2L8.796875 3.054688L9.117188 3.132813C 10.109375 3.359375 10.984375 3.878906 11.65625 4.597656L11.65625 4.597656L11.878906 4.835938L12.894531 4.480469L13.496094 5.519531L12.683594 6.21875L12.78125 6.53125C 12.921875 6.992188 13 7.488281 13 8L13 8L11 8C 11 6.347656 9.652344 5 8 5C 6.347656 5 5 6.347656 5 8C 5 9.652344 6.347656 11 8 11L8 11L8 14L7.398438 14L7.203125 12.941406L6.882813 12.871094C 5.890625 12.640625 5.015625 12.121094 4.34375 11.402344L4.34375 11.402344L4.117188 11.160156L3.101563 11.519531L2.503906 10.480469L3.316406 9.78125L3.21875 9.46875C 3.078125 9.007813 3 8.511719 3 8C 3 7.488281 3.078125 6.992188 3.21875 6.53125L3.21875 6.53125L3.316406 6.21875L2.503906 5.519531L3.101563 4.480469L4.121094 4.835938L4.34375 4.597656C 5.015625 3.878906 5.890625 3.359375 6.882813 3.132813L6.882813 3.132813L7.203125 3.054688zM8 6C 9.109375 6 10 6.890625 10 8L10 8L8 8L8 10C 6.890625 10 6 9.109375 6 8C 6 6.890625 6.890625 6 8 6zM9 9L15 9L15 10L9 10zM9 11L15 11L15 15L9 15zM13.160156 11.632813L11.699219 12.984375L10.839844 12.1875L10.160156 12.921875L11.699219 14.347656L13.839844 12.367188z" stroke="none" fill="#000000" fill-rule="nonzero" />
</g>
</svg>