<svg xmlns="http://www.w3.org/2000/svg" viewBox="0 0 16 16" fill="currentColor">
    <path style="line-height:normal;text-indent:0;text-align:start;text-decoration-line:none;text-decoration-style:solid;text-decoration-color:#000;text-transform:none;block-progression:tb;isolation:auto;mix-blend-mode:normal" d="M 2.5 1 C 1.6774686 1 1 1.6774686 1 2.5 L 1 12.5 C 1 13.322531 1.6774686 14 2.5 14 L 7 14 L 8 14 L 8 13 L 8 6 L 13 6 L 13 8 L 14 8 L 14 2.5 C 14 1.6774686 13.322531 1 12.5 1 L 8 1 L 7 1 L 2.5 1 z M 2.5 2 L 7 2 L 7 5 L 2 5 L 2 2.5 C 2 2.2185314 2.2185314 2 2.5 2 z M 8 2 L 12.5 2 C 12.781469 2 13 2.2185314 13 2.5 L 13 5 L 8 5 L 8 2 z M 2 6 L 7 6 L 7 9 L 2 9 L 2 6 z M 12 9 L 12 10.054688 C 11.682812 10.119977 11.390523 10.248141 11.128906 10.421875 L 10.353516 9.6464844 L 9.6464844 10.353516 L 10.421875 11.128906 C 10.248254 11.390698 10.115914 11.68268 10.050781 12 L 9 12 L 9 13 L 10.050781 13 C 10.115914 13.31732 10.248254 13.609302 10.421875 13.871094 L 9.6464844 14.646484 L 10.353516 15.353516 L 11.128906 14.578125 C 11.390523 14.751859 11.682812 14.880023 12 14.945312 L 12 16 L 13 16 L 13 14.945312 C 13.30679 14.882164 13.59051 14.760694 13.845703 14.595703 L 14.628906 15.460938 L 15.371094 14.789062 L 14.560547 13.896484 C 14.743111 13.62842 14.881945 13.327751 14.949219 13 L 16 13 L 16 12 L 14.949219 12 C 14.884465 11.684525 14.754089 11.393477 14.582031 11.132812 L 15.349609 10.376953 L 14.650391 9.6640625 L 13.875 10.425781 C 13.612269 10.250489 13.31902 10.120354 13 10.054688 L 13 9 L 12 9 z M 2 10 L 7 10 L 7 13 L 2.5 13 C 2.2185314 13 2 12.781469 2 12.5 L 2 10 z M 12.5 11 C 13.334349 11 14 11.665651 14 12.5 C 14 13.334349 13.334349 14 12.5 14 C 11.665651 14 11 13.334349 11 12.5 C 11 11.665651 11.665651 11 12.5 11 z"/>
</svg>
