<svg xmlns="http://www.w3.org/2000/svg" xmlns:xlink="http://www.w3.org/1999/xlink" viewBox="0 0 16 16" version="1.1" fill="currentColor">
<g id="surface1">
<path style=" " d="M 4.648438 2.023438 L 3 3.667969 L 2.351563 3.023438 L 1.648438 3.726563 L 3 5.082031 L 5.351563 2.726563 Z M 7 3 L 7 4 L 14 4 L 14 3 Z M 4.648438 6.023438 L 3 7.667969 L 2.351563 7.023438 L 1.648438 7.726563 L 3 9.082031 L 5.351563 6.726563 Z M 7 7 L 7 8 L 14 8 L 14 7 Z M 2.5 10 C 2.222656 10 2 10.222656 2 10.5 L 2 12.5 C 2 12.777344 2.222656 13 2.5 13 L 4.5 13 C 4.777344 13 5 12.777344 5 12.5 L 5 10.5 C 5 10.222656 4.777344 10 4.5 10 Z M 3 11 L 4 11 L 4 12 L 3 12 Z M 7 11 L 7 12 L 14 12 L 14 11 Z "/>
</g>
</svg>
