<svg xmlns="http://www.w3.org/2000/svg" viewBox="0 0 16 16" version="1.1" fill="currentColor">
<g id="surface1">
<path style=" " d="M 4.5 1.0625 L 1.03125 4.53125 L 1.738281 5.238281 L 4 2.976563 L 4 8 L 5 8 L 5 2.976563 L 7.261719 5.238281 L 7.96875 4.53125 Z M 10 2 L 10 3 L 11 3 L 11 2 Z M 10 4 L 10 5 L 11 5 L 11 4 Z M 10 6 L 10 7 L 11 7 L 11 6 Z M 10 8 L 10 13.023438 L 7.738281 10.761719 L 7.03125 11.46875 L 10.5 14.9375 L 13.96875 11.46875 L 13.261719 10.761719 L 11 13.023438 L 11 8 Z M 4 9 L 4 10 L 5 10 L 5 9 Z M 4 11 L 4 12 L 5 12 L 5 11 Z M 4 13 L 4 14 L 5 14 L 5 13 Z "/>
</g>
</svg>
