<svg xmlns="http://www.w3.org/2000/svg" viewBox="0 0 16 16" fill="currentColor">
    <path style="line-height:normal;text-indent:0;text-align:start;text-decoration-line:none;text-decoration-style:solid;text-decoration-color:#000;text-transform:none;block-progression:tb;isolation:auto;mix-blend-mode:normal" d="M 2.5 2 C 1.6774686 2 1 2.6774686 1 3.5 L 1 4.5 L 1 12.5 C 1 13.322531 1.6774686 14 2.5 14 L 13.5 14 C 14.322531 14 15 13.322531 15 12.5 L 15 5.5 C 15 4.6774686 14.322531 4 13.5 4 L 6.7988281 4 L 6.1445312 2.7871094 C 5.8835911 2.3027204 5.3751898 2 4.8242188 2 L 2.5 2 z M 2.5 3 L 4.8242188 3 C 5.0092477 3 5.176612 3.1001077 5.2636719 3.2617188 L 5.6621094 4 L 2 4 L 2 3.5 C 2 3.2185314 2.2185314 3 2.5 3 z M 2 5 L 13.5 5 C 13.781469 5 14 5.2185314 14 5.5 L 14 12.5 C 14 12.781469 13.781469 13 13.5 13 L 2.5 13 C 2.2185314 13 2 12.781469 2 12.5 L 2 5 z M 8 6 C 6.9013528 6 6 6.9013528 6 8 C 6 8.5359199 6.2172227 9.0225055 6.5644531 9.3828125 C 5.6378325 9.8946108 5 10.8711 5 12 L 6 12 C 6 10.889094 6.8890941 10 8 10 C 9.1109059 10 10 10.889094 10 12 L 11 12 C 11 10.8711 10.362167 9.8946108 9.4355469 9.3828125 C 9.7827773 9.0225055 10 8.5359199 10 8 C 10 6.9013528 9.0986472 6 8 6 z M 8 7 C 8.5582071 7 9 7.4417929 9 8 C 9 8.5582071 8.5582071 9 8 9 C 7.4417929 9 7 8.5582071 7 8 C 7 7.4417929 7.4417929 7 8 7 z" font-weight="400" font-family="sans-serif" white-space="normal" overflow="visible"/>
</svg>