<svg xmlns="http://www.w3.org/2000/svg" viewBox="0 -3 20 16" version="1.1" fill="currentColor">
<path fill="#000000" d="M10.0026 0C2.8601 0 0.134471 5.67882 0.134471 5.67882L0 5.95811L0.134471 6.23739C0.134471 6.23739 2.8601 11.9162 10.0026 11.9162C17.1451 11.9162 19.8707 6.23739 19.8707 6.23739L20 5.95811L19.8707 5.67882C19.8707 5.67882 17.1451 0 10.0026 0ZM10.0026 1.32402C12.5679 1.32402 14.6367 3.39281 14.6367 5.95811C14.6367 8.5234 12.5679 10.5922 10.0026 10.5922C7.43729 10.5922 5.3685 8.5234 5.3685 5.95811C5.3685 3.39281 7.43729 1.32402 10.0026 1.32402ZM5.29092 2.35325C4.5203 3.35661 4.04448 4.59788 4.04448 5.95811C4.04448 7.31833 4.5203 8.55961 5.29092 9.56297C2.75149 8.30101 1.71709 6.29428 1.55159 5.95811C1.71709 5.62193 2.75149 3.61521 5.29092 2.35325ZM14.7142 2.35325C17.2537 3.61521 18.2881 5.62193 18.4536 5.95811C18.2881 6.29428 17.2537 8.30101 14.7142 9.56297C15.4849 8.55961 15.9607 7.31833 15.9607 5.95811C15.9607 4.59788 15.4849 3.35661 14.7142 2.35325ZM10.0026 3.97207C8.90613 3.97207 8.01655 4.86165 8.01655 5.95811C8.01655 7.05456 8.90613 7.94414 10.0026 7.94414C11.099 7.94414 11.9886 7.05456 11.9886 5.95811C11.9886 4.86165 11.099 3.97207 10.0026 3.97207Z" fill="#FAFAFA"/>
</svg>
