<svg width="1284" height="346" viewBox="0 0 480 346" fill="none" xmlns="http://www.w3.org/2000/svg">
<path d="M304.731 345.044H40.9074C18.7074 345.044 0.710449 327.047 0.710449 304.846V41.0229C0.710449 18.8219 18.7074 0.824951 40.9074 0.824951H304.731C326.931 0.824951 344.929 18.8219 344.929 41.0229V304.846C344.929 327.047 326.931 345.044 304.731 345.044Z" fill="#3664AF"/>
<path d="M245.318 86.768V121.147C245.318 139.896 181.993 155.147 103.276 155.518C101.641 155.526 100.322 154.199 100.322 152.572V55.351C100.322 53.771 101.554 52.476 103.118 52.405C103.174 52.397 103.221 52.397 103.276 52.397C113.298 52.444 123.076 52.736 132.506 53.242C133.683 53.305 134.852 53.368 136.012 53.439C197.931 57.159 243.975 70.317 245.286 86.073C245.31 86.302 245.318 86.539 245.318 86.768Z" fill="white"/>
<path d="M245.321 155.524V189.901C245.321 208.663 181.925 223.918 103.143 224.275C101.585 224.282 100.319 223.015 100.319 221.457V175.69C100.319 174.137 101.576 172.88 103.13 172.874C143.378 172.701 181.436 168.826 210.567 161.919C223.883 158.761 235.083 155.024 243.953 150.779C244.854 152.33 245.321 153.914 245.321 155.524Z" fill="white"/>
<path d="M245.321 224.281V258.658C245.321 277.42 181.925 292.675 103.143 293.032C101.585 293.039 100.319 291.773 100.319 290.214V244.447C100.319 242.894 101.576 241.638 103.13 241.631C143.378 241.458 181.436 237.583 210.567 230.676C223.883 227.518 235.083 223.781 243.953 219.536C244.854 221.087 245.321 222.671 245.321 224.281Z" fill="white"/>

</svg>
